Coordinates
version=1
nRows=18
nColumns=63
inDegrees=yes

Units are S.I. units (second, meters, Newtons, ...)
If the header above contains a line with 'inDegrees', this indicates whether rotational values are in degrees (yes) or radians (no).

endheader
time	pelvis_tilt	pelvis_list	pelvis_rotation	pelvis_tx	pelvis_ty	pelvis_tz	hip_flexion_r	hip_adduction_r	hip_rotation_r	knee_angle_r	knee_angle_r_beta	ankle_angle_r	subtalar_angle_r	mtp_angle_r	hip_flexion_l	hip_adduction_l	hip_rotation_l	knee_angle_l	knee_angle_l_beta	ankle_angle_l	subtalar_angle_l	mtp_angle_l	L5_S1_Flex_Ext	L5_S1_Lat_Bending	L5_S1_axial_rotation	L4_L5_Flex_Ext	L4_L5_Lat_Bending	L4_L5_axial_rotation	L3_L4_Flex_Ext	L3_L4_Lat_Bending	L3_L4_axial_rotation	L2_L3_Flex_Ext	L2_L3_Lat_Bending	L2_L3_axial_rotation	L1_L2_Flex_Ext	L1_L2_Lat_Bending	L1_L2_axial_rotation	L1_T12_Flex_Ext	L1_T12_Lat_Bending	L1_T12_axial_rotation	Abs_r3	Abs_r2	Abs_r1	Abs_t1	Abs_t2	neck_flexion	neck_bending	neck_rotation	arm_flex_r	arm_add_r	arm_rot_r	elbow_flex_r	pro_sup_r	wrist_flex_r	wrist_dev_r	arm_flex_l	arm_add_l	arm_rot_l	elbow_flex_l	pro_sup_l	wrist_flex_l	wrist_dev_l
0.000000	2.770939	-4.449638	95.457557	0.287875	0.751076	0.880172	2.005533	3.733938	6.881013	8.074684	0.140930	29.363259	-5.517011	0.000000	2.475261	-3.365820	5.759998	8.477078	0.147953	32.349518	-10.061480	0.000000	-0.328130	0.191248	1.620069	-0.609371	0.254360	1.721323	-0.539085	0.465001	1.721323	-0.375020	0.465001	1.417560	-0.304702	0.389993	1.316306	-0.187494	0.296243	1.215052	-2.343801	2.163437	9.010338	0.000000	0.000000	28.246059	-3.094131	-4.781036	8.058647	-8.218528	110.799245	10.867590	3.170734	0.466686	1.057433	12.205288	-3.901842	162.438717	6.607824	5.467013	-5.744796	-3.654317
0.016949	2.618982	-4.922883	95.736725	0.287943	0.750469	0.880785	2.668949	3.499966	6.017228	8.507653	0.148487	29.544825	-4.781356	0.000000	3.158969	-3.086783	6.880652	8.669635	0.151314	32.430239	-10.381919	0.000000	-0.290454	0.161563	1.609113	-0.539403	0.214879	1.709682	-0.477187	0.392824	1.709682	-0.331960	0.392824	1.407974	-0.269716	0.329459	1.307404	-0.165966	0.250261	1.206835	-2.074686	1.827634	8.949402	0.000000	0.000000	28.237459	-3.481260	-5.348806	8.062045	-7.603571	117.042064	9.375854	3.054758	0.865474	0.216236	12.803791	-4.073261	161.662279	7.539629	5.352734	-5.853059	-3.543381
0.033898	2.530132	-5.311111	96.019984	0.287937	0.749958	0.881431	3.233447	3.337382	5.252077	8.882057	0.155021	29.694369	-4.169885	0.000000	3.764735	-2.888959	7.836633	8.883330	0.155043	32.543660	-10.565557	0.000000	-0.258977	0.140796	1.595659	-0.480946	0.187259	1.695388	-0.425473	0.342332	1.695388	-0.295985	0.342332	1.396202	-0.240486	0.287111	1.296473	-0.147979	0.218093	1.196744	-1.849846	1.592713	8.874577	0.000000	0.000000	28.232863	-3.859641	-5.884655	8.085302	-7.122668	122.213255	8.176459	2.950681	1.174752	-0.471371	13.260315	-4.194226	160.983135	8.201304	5.220245	-5.936779	-3.506151
0.050847	2.496651	-5.621105	96.305526	0.287863	0.749537	0.882095	3.704877	3.237926	4.578185	9.200718	0.160583	29.814508	-3.670893	0.000000	4.296264	-2.763268	8.640535	9.113707	0.159064	32.684698	-10.627387	0.000000	-0.233306	0.127967	1.579811	-0.433272	0.170196	1.678549	-0.383298	0.311138	1.678549	-0.266645	0.311138	1.382334	-0.216648	0.260950	1.283596	-0.133311	0.198220	1.184858	-1.666480	1.447585	8.786433	0.000000	0.000000	28.231668	-4.224900	-6.386975	8.126292	-6.763275	126.402734	7.243664	2.858295	1.404899	-1.017638	13.590316	-4.270567	160.391673	8.625002	5.073657	-5.999052	-3.532656
0.067797	2.510802	-5.859652	96.591543	0.287729	0.749199	0.882762	4.089088	3.193339	3.988180	9.466454	0.165221	29.907860	-3.272671	0.000000	4.757263	-2.700628	9.304954	9.356313	0.163298	32.848269	-10.582405	0.000000	-0.213049	0.122095	1.561670	-0.395653	0.162386	1.659274	-0.350018	0.296861	1.659274	-0.243494	0.296861	1.366461	-0.197837	0.248975	1.268856	-0.121736	0.189125	1.171252	-1.521787	1.381160	8.685537	0.000000	0.000000	28.233268	-4.572666	-6.854160	8.182885	-6.512850	129.700419	6.551730	2.777392	1.566295	-1.434819	13.809251	-4.308110	159.878282	8.842880	4.917082	-6.042973	-3.612927
0.084746	2.564847	-6.033538	96.876227	0.287541	0.748939	0.883414	4.391931	3.195360	3.474684	9.682086	0.168984	29.977043	-2.963511	0.000000	5.151436	-2.691959	9.842486	9.606691	0.167668	33.029291	-10.445607	0.000000	-0.197814	0.122199	1.541338	-0.367360	0.162525	1.637672	-0.324988	0.297116	1.637672	-0.226081	0.297116	1.348671	-0.183690	0.249189	1.252337	-0.113031	0.189287	1.156004	-1.412964	1.382345	8.572460	0.000000	0.000000	28.237058	-4.898567	-7.284601	8.252955	-6.358848	132.196226	6.074917	2.707764	1.669319	-1.735163	13.932578	-4.312683	159.433351	8.887094	4.754631	-6.071639	-3.736994
0.101695	2.651049	-6.149548	97.157769	0.287306	0.748751	0.884038	4.619257	3.235729	3.030325	9.850432	0.171922	30.024674	-2.731706	0.000000	5.482491	-2.728179	10.265727	9.860386	0.172096	33.222681	-10.231987	0.000000	-0.187208	0.127301	1.518919	-0.347664	0.169310	1.613851	-0.307564	0.309519	1.613851	-0.213960	0.309519	1.329054	-0.173842	0.259591	1.234121	-0.106971	0.197189	1.139189	-1.337210	1.440050	8.447770	0.000000	0.000000	28.242435	-5.198232	-7.676691	8.334373	-6.288728	133.980074	5.787486	2.649203	1.724349	-1.930922	13.975755	-4.290115	159.047267	8.789799	4.590415	-6.088146	-3.894888
0.118644	2.761670	-6.214467	97.434361	0.287031	0.748630	0.884616	4.776916	3.306186	2.647727	9.974314	0.174085	30.053373	-2.565549	0.000000	5.754131	-2.800206	10.587272	10.112944	0.176504	33.423355	-9.956541	0.000000	-0.180840	0.136418	1.494513	-0.335838	0.181436	1.587920	-0.297102	0.331686	1.587920	-0.206682	0.331686	1.307699	-0.167928	0.278183	1.214292	-0.103332	0.211311	1.120885	-1.291724	1.543185	8.312035	0.000000	0.000000	28.248793	-5.467287	-8.028823	8.425011	-6.289945	135.141878	5.663695	2.601502	1.741765	-2.034347	13.954239	-4.246233	158.710420	8.583150	4.428546	-6.095590	-4.076639
0.135593	2.888973	-6.235082	97.704196	0.286724	0.748569	0.885134	4.870758	3.398472	2.319516	10.056551	0.175520	30.065755	-2.453331	0.000000	5.970064	-2.898961	10.819716	10.359909	0.180815	33.626230	-9.634264	0.000000	-0.178317	0.148570	1.468225	-0.331153	0.197599	1.559989	-0.292958	0.361234	1.559989	-0.203799	0.361234	1.284696	-0.165586	0.302965	1.192932	-0.101891	0.230136	1.101168	-1.273703	1.680659	8.165824	0.000000	0.000000	28.255528	-5.701361	-8.339388	8.522742	-6.349956	135.771556	5.677806	2.564452	1.731945	-2.057690	13.883487	-4.186865	158.413197	8.299304	4.273135	-6.097067	-4.272279
0.152542	3.025221	-6.218178	97.965465	0.286390	0.748562	0.885575	4.906633	3.504325	2.038317	10.099961	0.176278	30.064441	-2.383346	0.000000	6.133995	-3.015361	10.975655	10.596825	0.184949	33.826223	-9.280151	0.000000	-0.179247	0.162778	1.440154	-0.332880	0.216495	1.530164	-0.294486	0.395779	1.530164	-0.204862	0.395779	1.260135	-0.166449	0.331937	1.170126	-0.102422	0.252143	1.080116	-1.280347	1.841380	8.009707	0.000000	0.000000	28.262036	-5.896081	-8.606779	8.625438	-6.456218	135.959026	5.804079	2.537845	1.705269	-2.013202	13.778957	-4.117839	158.145987	7.970415	4.128293	-6.095673	-4.471836
0.169492	3.162675	-6.170540	98.216360	0.286037	0.748604	0.885924	4.890392	3.615488	1.796756	10.107367	0.176407	30.052046	-2.343885	0.000000	6.249629	-3.140326	11.067684	10.819239	0.188831	34.018250	-8.909198	0.000000	-0.183238	0.178061	1.410405	-0.340292	0.236821	1.498556	-0.301042	0.432937	1.498556	-0.209423	0.432937	1.234105	-0.170155	0.363101	1.145954	-0.104702	0.275816	1.057804	-1.308853	2.014258	7.844252	0.000000	0.000000	28.267711	-6.047077	-8.829389	8.730970	-6.596188	135.794204	6.016774	2.521475	1.672117	-1.913135	13.656106	-4.044982	157.899178	7.628639	3.998131	-6.094504	-4.665342
0.186441	3.328248	-6.117940	98.473940	0.285550	0.748680	0.886071	4.833950	3.746331	1.531702	10.057481	0.175536	30.024638	-2.238178	0.000000	6.335572	-3.294626	11.072081	11.025855	0.192437	34.195363	-8.492377	0.000000	-0.184100	0.199734	1.364585	-0.341893	0.265647	1.449871	-0.302459	0.485634	1.449871	-0.210408	0.485634	1.194012	-0.170956	0.407298	1.108725	-0.105195	0.309389	1.023439	-1.315011	2.259435	7.589412	0.000000	0.000000	28.275159	-6.126422	-8.833931	8.826894	-6.778045	135.428178	6.258799	2.520379	1.679633	-1.749386	13.604861	-3.973738	157.449202	7.542371	3.877265	-6.106927	-4.771135
0.203390	3.439262	-6.056955	98.718897	0.285100	0.748790	0.886124	4.748299	3.830328	1.321142	9.991418	0.174383	29.991535	-2.204598	0.000000	6.384105	-3.391996	11.144914	11.189741	0.195298	34.317442	-8.226133	0.000000	-0.189882	0.214832	1.322210	-0.352630	0.285726	1.404848	-0.311957	0.522342	1.404848	-0.217016	0.522342	1.156933	-0.176324	0.438085	1.074295	-0.108499	0.332775	0.991657	-1.356308	2.430221	7.353733	0.000000	0.000000	28.277284	-6.138504	-8.866306	8.937148	-6.931263	135.105326	6.492795	2.512615	1.739904	-1.591745	13.585266	-3.924347	157.125874	7.486565	3.755609	-6.131367	-4.866390
0.220339	3.490338	-5.995476	98.934124	0.284711	0.748924	0.886045	4.644297	3.860241	1.159068	9.920714	0.173149	29.964518	-2.210659	0.000000	6.396337	-3.425930	11.294349	11.308641	0.197373	34.378025	-8.132241	0.000000	-0.198909	0.222483	1.285962	-0.369394	0.295903	1.366334	-0.326788	0.540946	1.366334	-0.227333	0.540946	1.125217	-0.184707	0.453688	1.044844	-0.113657	0.344627	0.964471	-1.420788	2.516776	7.152134	0.000000	0.000000	28.272549	-6.086599	-8.926625	9.043464	-7.041161	134.911748	6.696266	2.445827	1.821640	-1.425651	13.589772	-3.898564	156.946929	7.465931	3.584502	-6.170598	-4.944459
0.237288	3.496059	-5.908832	99.129503	0.284388	0.749108	0.885809	4.480584	3.842605	0.857413	9.811921	0.171250	29.972665	-1.988975	0.000000	6.354128	-3.444210	11.187885	11.389107	0.198777	34.492252	-7.726623	0.000000	-0.214021	0.224709	1.255257	-0.397458	0.298863	1.333711	-0.351615	0.546358	1.333711	-0.244604	0.546358	1.098350	-0.198740	0.458227	1.019897	-0.122291	0.348075	0.941443	-1.528729	2.541957	6.981366	0.000000	0.000000	28.263470	-5.996664	-9.030276	9.127945	-7.159588	134.076759	6.980689	2.604051	1.894859	-1.233870	13.620091	-3.920083	156.380319	7.521673	3.801976	-6.218720	-5.002319
0.254237	3.453682	-5.813702	99.280500	0.284143	0.749316	0.885410	4.289100	3.789380	0.659661	9.696419	0.169234	29.973990	-1.850498	0.000000	6.262727	-3.407752	11.214565	11.426152	0.199424	34.527730	-7.590002	0.000000	-0.232008	0.221217	1.233673	-0.430863	0.294219	1.310778	-0.381166	0.537867	1.310778	-0.265162	0.537867	1.079464	-0.215443	0.451106	1.002359	-0.132570	0.342665	0.925255	-1.657212	2.502452	6.861319	0.000000	0.000000	28.249630	-5.876516	-9.158288	9.197713	-7.228048	133.614978	7.186451	2.643012	1.991029	-1.071044	13.674089	-3.944885	156.125217	7.607841	3.905616	-6.274169	-5.012591
0.271186	3.377642	-5.706665	99.409646	0.283935	0.749544	0.884834	4.060252	3.709355	0.481765	9.559648	0.166847	29.981610	-1.701451	0.000000	6.126630	-3.334615	11.315750	11.430500	0.199500	34.524668	-7.599933	0.000000	-0.251783	0.213984	1.213943	-0.467586	0.284598	1.289815	-0.413654	0.520280	1.289815	-0.287763	0.520280	1.062200	-0.233806	0.436356	0.986329	-0.143869	0.331461	0.910457	-1.798460	2.420626	6.751588	0.000000	0.000000	28.233645	-5.727713	-9.275763	9.245774	-7.264547	133.285821	7.343827	2.681508	2.101338	-0.936022	13.735608	-3.981191	155.940472	7.738112	4.004509	-6.330078	-4.979942
0.288136	3.280659	-5.580178	99.468237	0.283828	0.749793	0.884074	3.791450	3.622875	0.438725	9.405883	0.164164	29.971569	-1.636376	0.000000	5.936003	-3.250688	11.349291	11.409576	0.199135	34.525140	-7.624958	0.000000	-0.272856	0.204543	1.203013	-0.506721	0.272042	1.278202	-0.448276	0.497325	1.278202	-0.311847	0.497325	1.052637	-0.253374	0.417104	0.977448	-0.155910	0.316837	0.902260	-1.948985	2.313829	6.690800	0.000000	0.000000	28.215723	-5.555644	-9.357365	9.271154	-7.275300	133.054658	7.460075	2.710231	2.224677	-0.828032	13.796332	-4.024614	155.831232	7.903026	4.103954	-6.385849	-4.904768
